<mxfile host="app.diagrams.net" modified="2024-07-04T15:44:36.250Z" agent="Mozilla/5.0 (Windows NT 10.0; Win64; x64) AppleWebKit/537.36 (KHTML, like Gecko) Chrome/126.0.0.0 Safari/537.36" version="24.6.4" etag="AHdUSCtt1YclZ8NtQ3uN" type="github">
  <diagram name="Page-1" id="qiqbDZnMg8P5Oo4IhUxb">
    <mxGraphModel>
      <root>
        <mxCell id="0" />
        <mxCell id="1" parent="0" />
      </root>
    </mxGraphModel>
  </diagram>
</mxfile>
